<mxfile host="app.diagrams.net" modified="2021-04-29T09:15:52.060Z" agent="5.0 (Windows NT 6.1; Win64; x64) AppleWebKit/537.36 (KHTML, like Gecko) Chrome/90.0.4430.85 Safari/537.36" etag="pTOSc14gTI7BcsZBSlWx" version="14.6.6" type="github">
  <diagram id="8cNXlBiLXLBAkxZQb8D8" name="Page-1">
    <mxGraphModel dx="1422" dy="1931" grid="1" gridSize="10" guides="1" tooltips="1" connect="1" arrows="1" fold="1" page="1" pageScale="1" pageWidth="827" pageHeight="1169" math="0" shadow="0">
      <root>
        <mxCell id="0" />
        <mxCell id="1" parent="0" />
        <mxCell id="VemQdVgCqKe6KZT4vhwg-34" value="物流" style="shape=umlFrame;whiteSpace=wrap;html=1;strokeColor=#0000CC;fillColor=#99CCFF;" vertex="1" parent="1">
          <mxGeometry x="60" y="140" width="380" height="530" as="geometry" />
        </mxCell>
        <mxCell id="ihgOOm5gKKsvJmpZFbWJ-121" value="采购单发货" style="shape=umlFrame;whiteSpace=wrap;html=1;fontSize=18;align=left;strokeColor=#0000CC;width=97;height=36;fillColor=#CCE5FF;" parent="1" vertex="1">
          <mxGeometry x="1603.25" y="-526" width="513.5" height="316" as="geometry" />
        </mxCell>
        <mxCell id="ihgOOm5gKKsvJmpZFbWJ-123" value="采购单售后" style="shape=umlFrame;whiteSpace=wrap;html=1;fontSize=18;align=left;strokeColor=#0000CC;width=97;height=36;fillColor=#CCE5FF;" parent="1" vertex="1">
          <mxGeometry x="1603.25" y="-80" width="606.75" height="880" as="geometry" />
        </mxCell>
        <mxCell id="ihgOOm5gKKsvJmpZFbWJ-120" value="采购单" style="shape=umlFrame;whiteSpace=wrap;html=1;fontSize=18;align=left;strokeColor=#0000CC;width=90;height=30;fillColor=#CCE5FF;" parent="1" vertex="1">
          <mxGeometry x="900" y="-676" width="500" height="510" as="geometry" />
        </mxCell>
        <mxCell id="ihgOOm5gKKsvJmpZFbWJ-138" value="" style="edgeStyle=orthogonalEdgeStyle;rounded=0;orthogonalLoop=1;jettySize=auto;html=1;fontSize=18;fontColor=#FF0000;entryX=0.5;entryY=0;entryDx=0;entryDy=0;strokeColor=#FF0000;" parent="1" source="ihgOOm5gKKsvJmpZFbWJ-119" target="ihgOOm5gKKsvJmpZFbWJ-135" edge="1">
          <mxGeometry relative="1" as="geometry" />
        </mxCell>
        <mxCell id="ihgOOm5gKKsvJmpZFbWJ-139" value="1.4 用户调用PurchaseAPI::cancel取消订单" style="edgeLabel;html=1;align=center;verticalAlign=middle;resizable=0;points=[];fontSize=18;fontColor=#FF0000;labelBackgroundColor=none;" parent="ihgOOm5gKKsvJmpZFbWJ-138" vertex="1" connectable="0">
          <mxGeometry x="-0.0905" y="3" relative="1" as="geometry">
            <mxPoint x="1" as="offset" />
          </mxGeometry>
        </mxCell>
        <mxCell id="ihgOOm5gKKsvJmpZFbWJ-148" style="edgeStyle=orthogonalEdgeStyle;rounded=0;orthogonalLoop=1;jettySize=auto;html=1;fontSize=18;fontColor=#FF0000;strokeColor=#FF0000;" parent="1" source="ihgOOm5gKKsvJmpZFbWJ-119" target="ihgOOm5gKKsvJmpZFbWJ-120" edge="1">
          <mxGeometry relative="1" as="geometry" />
        </mxCell>
        <mxCell id="ihgOOm5gKKsvJmpZFbWJ-149" value="1.2 调用PurchaseAPI::pay支付订单并产生采购单数据" style="edgeLabel;html=1;align=center;verticalAlign=middle;resizable=0;points=[];fontSize=18;fontColor=#FF0000;" parent="ihgOOm5gKKsvJmpZFbWJ-148" vertex="1" connectable="0">
          <mxGeometry x="0.0623" y="-1" relative="1" as="geometry">
            <mxPoint y="-9" as="offset" />
          </mxGeometry>
        </mxCell>
        <mxCell id="ihgOOm5gKKsvJmpZFbWJ-119" value="下单锁定" style="shape=umlFrame;whiteSpace=wrap;html=1;fontSize=18;align=left;strokeColor=#0000CC;width=90;height=30;fillColor=#CCE5FF;" parent="1" vertex="1">
          <mxGeometry x="60" y="-803" width="610" height="630" as="geometry" />
        </mxCell>
        <mxCell id="86TAuo0AVCAtvqethzrD-2" value="交易中心对接文档&lt;br&gt;项目: zaimi-trade&lt;br&gt;数据库: zaimi-trade&lt;br&gt;gitlab:&amp;nbsp;git@gitlab.zaimikeji.com:trade/zaimi-trade.git&lt;br&gt;&lt;div&gt;&lt;br&gt;&lt;/div&gt;" style="text;html=1;strokeColor=none;fillColor=none;align=left;verticalAlign=middle;whiteSpace=wrap;rounded=0;fontSize=18;fontColor=#3333FF;" parent="1" vertex="1">
          <mxGeometry x="60" y="-1020" width="560" height="20" as="geometry" />
        </mxCell>
        <mxCell id="86TAuo0AVCAtvqethzrD-15" value="purchase_order(供货单)" style="swimlane;fontStyle=0;childLayout=stackLayout;horizontal=1;startSize=26;fillColor=none;horizontalStack=0;resizeParent=1;resizeParentMax=0;resizeLast=0;collapsible=1;marginBottom=0;fontSize=18;fontColor=#000000;align=left;" parent="1" vertex="1">
          <mxGeometry x="950" y="-612" width="220" height="102" as="geometry" />
        </mxCell>
        <mxCell id="86TAuo0AVCAtvqethzrD-16" value="+ purchase_order_lock_id" style="text;strokeColor=none;fillColor=none;align=left;verticalAlign=top;spacingLeft=4;spacingRight=4;overflow=hidden;rotatable=0;points=[[0,0.5],[1,0.5]];portConstraint=eastwest;" parent="86TAuo0AVCAtvqethzrD-15" vertex="1">
          <mxGeometry y="26" width="220" height="24" as="geometry" />
        </mxCell>
        <mxCell id="86TAuo0AVCAtvqethzrD-17" value="+ purchase_order_id" style="text;strokeColor=none;fillColor=none;align=left;verticalAlign=top;spacingLeft=4;spacingRight=4;overflow=hidden;rotatable=0;points=[[0,0.5],[1,0.5]];portConstraint=eastwest;" parent="86TAuo0AVCAtvqethzrD-15" vertex="1">
          <mxGeometry y="50" width="220" height="26" as="geometry" />
        </mxCell>
        <mxCell id="86TAuo0AVCAtvqethzrD-18" value="……" style="text;strokeColor=none;fillColor=none;align=left;verticalAlign=top;spacingLeft=4;spacingRight=4;overflow=hidden;rotatable=0;points=[[0,0.5],[1,0.5]];portConstraint=eastwest;" parent="86TAuo0AVCAtvqethzrD-15" vertex="1">
          <mxGeometry y="76" width="220" height="26" as="geometry" />
        </mxCell>
        <mxCell id="86TAuo0AVCAtvqethzrD-19" value="purchase_order_lock_address(锁定单地址)" style="swimlane;fontStyle=0;childLayout=stackLayout;horizontal=1;startSize=26;fillColor=none;horizontalStack=0;resizeParent=1;resizeParentMax=0;resizeLast=0;collapsible=1;marginBottom=0;fontSize=18;fontColor=#000000;align=left;" parent="1" vertex="1">
          <mxGeometry x="150" y="-593" width="360" height="78" as="geometry" />
        </mxCell>
        <mxCell id="86TAuo0AVCAtvqethzrD-20" value="+ purchase_order_lock_id" style="text;strokeColor=none;fillColor=none;align=left;verticalAlign=top;spacingLeft=4;spacingRight=4;overflow=hidden;rotatable=0;points=[[0,0.5],[1,0.5]];portConstraint=eastwest;" parent="86TAuo0AVCAtvqethzrD-19" vertex="1">
          <mxGeometry y="26" width="360" height="26" as="geometry" />
        </mxCell>
        <mxCell id="86TAuo0AVCAtvqethzrD-61" value="……" style="text;strokeColor=none;fillColor=none;align=left;verticalAlign=top;spacingLeft=4;spacingRight=4;overflow=hidden;rotatable=0;points=[[0,0.5],[1,0.5]];portConstraint=eastwest;" parent="86TAuo0AVCAtvqethzrD-19" vertex="1">
          <mxGeometry y="52" width="360" height="26" as="geometry" />
        </mxCell>
        <mxCell id="86TAuo0AVCAtvqethzrD-23" value="purchase_order_lock_split(锁定单拆单)" style="swimlane;fontStyle=0;childLayout=stackLayout;horizontal=1;startSize=26;fillColor=none;horizontalStack=0;resizeParent=1;resizeParentMax=0;resizeLast=0;collapsible=1;marginBottom=0;fontSize=18;fontColor=#000000;align=left;" parent="1" vertex="1">
          <mxGeometry x="150" y="-313" width="330" height="78" as="geometry" />
        </mxCell>
        <mxCell id="86TAuo0AVCAtvqethzrD-24" value="+ purchase_order_lock_id" style="text;strokeColor=none;fillColor=none;align=left;verticalAlign=top;spacingLeft=4;spacingRight=4;overflow=hidden;rotatable=0;points=[[0,0.5],[1,0.5]];portConstraint=eastwest;" parent="86TAuo0AVCAtvqethzrD-23" vertex="1">
          <mxGeometry y="26" width="330" height="26" as="geometry" />
        </mxCell>
        <mxCell id="ihgOOm5gKKsvJmpZFbWJ-3" value="……" style="text;strokeColor=none;fillColor=none;align=left;verticalAlign=top;spacingLeft=4;spacingRight=4;overflow=hidden;rotatable=0;points=[[0,0.5],[1,0.5]];portConstraint=eastwest;" parent="86TAuo0AVCAtvqethzrD-23" vertex="1">
          <mxGeometry y="52" width="330" height="26" as="geometry" />
        </mxCell>
        <mxCell id="86TAuo0AVCAtvqethzrD-27" value="purchase_order_address(供货单收货地址)" style="swimlane;fontStyle=0;childLayout=stackLayout;horizontal=1;startSize=26;fillColor=none;horizontalStack=0;resizeParent=1;resizeParentMax=0;resizeLast=0;collapsible=1;marginBottom=0;fontSize=18;fontColor=#000000;align=left;" parent="1" vertex="1">
          <mxGeometry x="950" y="-466" width="360" height="78" as="geometry" />
        </mxCell>
        <mxCell id="86TAuo0AVCAtvqethzrD-28" value="+ purchase_order_id" style="text;strokeColor=none;fillColor=none;align=left;verticalAlign=top;spacingLeft=4;spacingRight=4;overflow=hidden;rotatable=0;points=[[0,0.5],[1,0.5]];portConstraint=eastwest;" parent="86TAuo0AVCAtvqethzrD-27" vertex="1">
          <mxGeometry y="26" width="360" height="26" as="geometry" />
        </mxCell>
        <mxCell id="86TAuo0AVCAtvqethzrD-29" value="……" style="text;strokeColor=none;fillColor=none;align=left;verticalAlign=top;spacingLeft=4;spacingRight=4;overflow=hidden;rotatable=0;points=[[0,0.5],[1,0.5]];portConstraint=eastwest;" parent="86TAuo0AVCAtvqethzrD-27" vertex="1">
          <mxGeometry y="52" width="360" height="26" as="geometry" />
        </mxCell>
        <mxCell id="86TAuo0AVCAtvqethzrD-35" value="purchase_order_product(供货单商品)" style="swimlane;fontStyle=0;childLayout=stackLayout;horizontal=1;startSize=26;fillColor=none;horizontalStack=0;resizeParent=1;resizeParentMax=0;resizeLast=0;collapsible=1;marginBottom=0;fontSize=18;fontColor=#000000;align=left;" parent="1" vertex="1">
          <mxGeometry x="950" y="-336" width="310" height="104" as="geometry" />
        </mxCell>
        <mxCell id="86TAuo0AVCAtvqethzrD-36" value="+ purchase_order_id" style="text;strokeColor=none;fillColor=none;align=left;verticalAlign=top;spacingLeft=4;spacingRight=4;overflow=hidden;rotatable=0;points=[[0,0.5],[1,0.5]];portConstraint=eastwest;" parent="86TAuo0AVCAtvqethzrD-35" vertex="1">
          <mxGeometry y="26" width="310" height="26" as="geometry" />
        </mxCell>
        <mxCell id="ihgOOm5gKKsvJmpZFbWJ-5" value="+ purchase_order_product_id" style="text;strokeColor=none;fillColor=none;align=left;verticalAlign=top;spacingLeft=4;spacingRight=4;overflow=hidden;rotatable=0;points=[[0,0.5],[1,0.5]];portConstraint=eastwest;" parent="86TAuo0AVCAtvqethzrD-35" vertex="1">
          <mxGeometry y="52" width="310" height="26" as="geometry" />
        </mxCell>
        <mxCell id="ihgOOm5gKKsvJmpZFbWJ-4" value="……" style="text;strokeColor=none;fillColor=none;align=left;verticalAlign=top;spacingLeft=4;spacingRight=4;overflow=hidden;rotatable=0;points=[[0,0.5],[1,0.5]];portConstraint=eastwest;" parent="86TAuo0AVCAtvqethzrD-35" vertex="1">
          <mxGeometry y="78" width="310" height="26" as="geometry" />
        </mxCell>
        <mxCell id="86TAuo0AVCAtvqethzrD-39" value="purchase_order_lock(锁定单)" style="swimlane;fontStyle=0;childLayout=stackLayout;horizontal=1;startSize=26;fillColor=none;horizontalStack=0;resizeParent=1;resizeParentMax=0;resizeLast=0;collapsible=1;marginBottom=0;fontSize=18;fontColor=#000000;align=left;" parent="1" vertex="1">
          <mxGeometry x="150" y="-733" width="290" height="78" as="geometry" />
        </mxCell>
        <mxCell id="86TAuo0AVCAtvqethzrD-40" value="+ purchase_order_lock_id" style="text;strokeColor=none;fillColor=none;align=left;verticalAlign=top;spacingLeft=4;spacingRight=4;overflow=hidden;rotatable=0;points=[[0,0.5],[1,0.5]];portConstraint=eastwest;" parent="86TAuo0AVCAtvqethzrD-39" vertex="1">
          <mxGeometry y="26" width="290" height="26" as="geometry" />
        </mxCell>
        <mxCell id="86TAuo0AVCAtvqethzrD-59" value="……" style="text;strokeColor=none;fillColor=none;align=left;verticalAlign=top;spacingLeft=4;spacingRight=4;overflow=hidden;rotatable=0;points=[[0,0.5],[1,0.5]];portConstraint=eastwest;" parent="86TAuo0AVCAtvqethzrD-39" vertex="1">
          <mxGeometry y="52" width="290" height="26" as="geometry" />
        </mxCell>
        <mxCell id="86TAuo0AVCAtvqethzrD-43" value="purchase_order_lock_product(锁定单商品)" style="swimlane;fontStyle=0;childLayout=stackLayout;horizontal=1;startSize=26;fillColor=none;horizontalStack=0;resizeParent=1;resizeParentMax=0;resizeLast=0;collapsible=1;marginBottom=0;fontSize=18;fontColor=#000000;align=left;" parent="1" vertex="1">
          <mxGeometry x="150" y="-443" width="360" height="78" as="geometry" />
        </mxCell>
        <mxCell id="86TAuo0AVCAtvqethzrD-44" value="+ purchase_order_lock_id" style="text;strokeColor=none;fillColor=none;align=left;verticalAlign=top;spacingLeft=4;spacingRight=4;overflow=hidden;rotatable=0;points=[[0,0.5],[1,0.5]];portConstraint=eastwest;" parent="86TAuo0AVCAtvqethzrD-43" vertex="1">
          <mxGeometry y="26" width="360" height="26" as="geometry" />
        </mxCell>
        <mxCell id="ihgOOm5gKKsvJmpZFbWJ-1" value="……" style="text;strokeColor=none;fillColor=none;align=left;verticalAlign=top;spacingLeft=4;spacingRight=4;overflow=hidden;rotatable=0;points=[[0,0.5],[1,0.5]];portConstraint=eastwest;" parent="86TAuo0AVCAtvqethzrD-43" vertex="1">
          <mxGeometry y="52" width="360" height="26" as="geometry" />
        </mxCell>
        <mxCell id="86TAuo0AVCAtvqethzrD-47" value="purchase_order_shipment_batch(采购单发货批次表)" style="swimlane;fontStyle=0;childLayout=stackLayout;horizontal=1;startSize=26;fillColor=none;horizontalStack=0;resizeParent=1;resizeParentMax=0;resizeLast=0;collapsible=1;marginBottom=0;fontSize=18;fontColor=#000000;align=left;" parent="1" vertex="1">
          <mxGeometry x="1630" y="-348" width="430" height="78" as="geometry" />
        </mxCell>
        <mxCell id="86TAuo0AVCAtvqethzrD-48" value="+ purchase_order_id" style="text;strokeColor=none;fillColor=none;align=left;verticalAlign=top;spacingLeft=4;spacingRight=4;overflow=hidden;rotatable=0;points=[[0,0.5],[1,0.5]];portConstraint=eastwest;" parent="86TAuo0AVCAtvqethzrD-47" vertex="1">
          <mxGeometry y="26" width="430" height="26" as="geometry" />
        </mxCell>
        <mxCell id="86TAuo0AVCAtvqethzrD-50" value="……" style="text;strokeColor=none;fillColor=none;align=left;verticalAlign=top;spacingLeft=4;spacingRight=4;overflow=hidden;rotatable=0;points=[[0,0.5],[1,0.5]];portConstraint=eastwest;" parent="86TAuo0AVCAtvqethzrD-47" vertex="1">
          <mxGeometry y="52" width="430" height="26" as="geometry" />
        </mxCell>
        <mxCell id="86TAuo0AVCAtvqethzrD-51" value="purchase_order_shipment(采购单发货表)" style="swimlane;fontStyle=0;childLayout=stackLayout;horizontal=1;startSize=26;fillColor=none;horizontalStack=0;resizeParent=1;resizeParentMax=0;resizeLast=0;collapsible=1;marginBottom=0;fontSize=18;fontColor=#000000;align=left;" parent="1" vertex="1">
          <mxGeometry x="1630" y="-460" width="340" height="78" as="geometry" />
        </mxCell>
        <mxCell id="86TAuo0AVCAtvqethzrD-52" value="+ purchase_order_id" style="text;strokeColor=none;fillColor=none;align=left;verticalAlign=top;spacingLeft=4;spacingRight=4;overflow=hidden;rotatable=0;points=[[0,0.5],[1,0.5]];portConstraint=eastwest;" parent="86TAuo0AVCAtvqethzrD-51" vertex="1">
          <mxGeometry y="26" width="340" height="26" as="geometry" />
        </mxCell>
        <mxCell id="ihgOOm5gKKsvJmpZFbWJ-6" value="……" style="text;strokeColor=none;fillColor=none;align=left;verticalAlign=top;spacingLeft=4;spacingRight=4;overflow=hidden;rotatable=0;points=[[0,0.5],[1,0.5]];portConstraint=eastwest;" parent="86TAuo0AVCAtvqethzrD-51" vertex="1">
          <mxGeometry y="52" width="340" height="26" as="geometry" />
        </mxCell>
        <mxCell id="ihgOOm5gKKsvJmpZFbWJ-11" value="purchase_order_refund(售后表)" style="swimlane;fontStyle=0;childLayout=stackLayout;horizontal=1;startSize=26;fillColor=none;horizontalStack=0;resizeParent=1;resizeParentMax=0;resizeLast=0;collapsible=1;marginBottom=0;fontSize=18;align=left;" parent="1" vertex="1">
          <mxGeometry x="1630" y="-20" width="340" height="130" as="geometry" />
        </mxCell>
        <mxCell id="ihgOOm5gKKsvJmpZFbWJ-12" value="+ purchase_order_id" style="text;strokeColor=none;fillColor=none;align=left;verticalAlign=top;spacingLeft=4;spacingRight=4;overflow=hidden;rotatable=0;points=[[0,0.5],[1,0.5]];portConstraint=eastwest;" parent="ihgOOm5gKKsvJmpZFbWJ-11" vertex="1">
          <mxGeometry y="26" width="340" height="26" as="geometry" />
        </mxCell>
        <mxCell id="ihgOOm5gKKsvJmpZFbWJ-13" value="+ purchase_order_product_id" style="text;strokeColor=none;fillColor=none;align=left;verticalAlign=top;spacingLeft=4;spacingRight=4;overflow=hidden;rotatable=0;points=[[0,0.5],[1,0.5]];portConstraint=eastwest;" parent="ihgOOm5gKKsvJmpZFbWJ-11" vertex="1">
          <mxGeometry y="52" width="340" height="26" as="geometry" />
        </mxCell>
        <mxCell id="ihgOOm5gKKsvJmpZFbWJ-71" value="+ purchase_order_refund_id" style="text;strokeColor=none;fillColor=none;align=left;verticalAlign=top;spacingLeft=4;spacingRight=4;overflow=hidden;rotatable=0;points=[[0,0.5],[1,0.5]];portConstraint=eastwest;" parent="ihgOOm5gKKsvJmpZFbWJ-11" vertex="1">
          <mxGeometry y="78" width="340" height="26" as="geometry" />
        </mxCell>
        <mxCell id="ihgOOm5gKKsvJmpZFbWJ-72" value="……" style="text;strokeColor=none;fillColor=none;align=left;verticalAlign=top;spacingLeft=4;spacingRight=4;overflow=hidden;rotatable=0;points=[[0,0.5],[1,0.5]];portConstraint=eastwest;" parent="ihgOOm5gKKsvJmpZFbWJ-11" vertex="1">
          <mxGeometry y="104" width="340" height="26" as="geometry" />
        </mxCell>
        <mxCell id="ihgOOm5gKKsvJmpZFbWJ-73" value="purchase_order_refund_address(售后地址表)" style="swimlane;fontStyle=0;childLayout=stackLayout;horizontal=1;startSize=26;fillColor=none;horizontalStack=0;resizeParent=1;resizeParentMax=0;resizeLast=0;collapsible=1;marginBottom=0;fontSize=18;align=left;" parent="1" vertex="1">
          <mxGeometry x="1630" y="150" width="380" height="78" as="geometry" />
        </mxCell>
        <mxCell id="ihgOOm5gKKsvJmpZFbWJ-76" value="+ purchase_order_refund_id" style="text;strokeColor=none;fillColor=none;align=left;verticalAlign=top;spacingLeft=4;spacingRight=4;overflow=hidden;rotatable=0;points=[[0,0.5],[1,0.5]];portConstraint=eastwest;" parent="ihgOOm5gKKsvJmpZFbWJ-73" vertex="1">
          <mxGeometry y="26" width="380" height="26" as="geometry" />
        </mxCell>
        <mxCell id="ihgOOm5gKKsvJmpZFbWJ-77" value="……" style="text;strokeColor=none;fillColor=none;align=left;verticalAlign=top;spacingLeft=4;spacingRight=4;overflow=hidden;rotatable=0;points=[[0,0.5],[1,0.5]];portConstraint=eastwest;" parent="ihgOOm5gKKsvJmpZFbWJ-73" vertex="1">
          <mxGeometry y="52" width="380" height="26" as="geometry" />
        </mxCell>
        <mxCell id="ihgOOm5gKKsvJmpZFbWJ-78" value="purchase_order_refund_image(售后图片表)" style="swimlane;fontStyle=0;childLayout=stackLayout;horizontal=1;startSize=26;fillColor=none;horizontalStack=0;resizeParent=1;resizeParentMax=0;resizeLast=0;collapsible=1;marginBottom=0;fontSize=18;align=left;" parent="1" vertex="1">
          <mxGeometry x="1630" y="270" width="360" height="78" as="geometry" />
        </mxCell>
        <mxCell id="ihgOOm5gKKsvJmpZFbWJ-79" value="+ purchase_order_refund_id" style="text;strokeColor=none;fillColor=none;align=left;verticalAlign=top;spacingLeft=4;spacingRight=4;overflow=hidden;rotatable=0;points=[[0,0.5],[1,0.5]];portConstraint=eastwest;" parent="ihgOOm5gKKsvJmpZFbWJ-78" vertex="1">
          <mxGeometry y="26" width="360" height="26" as="geometry" />
        </mxCell>
        <mxCell id="ihgOOm5gKKsvJmpZFbWJ-82" value="……" style="text;strokeColor=none;fillColor=none;align=left;verticalAlign=top;spacingLeft=4;spacingRight=4;overflow=hidden;rotatable=0;points=[[0,0.5],[1,0.5]];portConstraint=eastwest;" parent="ihgOOm5gKKsvJmpZFbWJ-78" vertex="1">
          <mxGeometry y="52" width="360" height="26" as="geometry" />
        </mxCell>
        <mxCell id="ihgOOm5gKKsvJmpZFbWJ-83" value="purchase_order_refund_logistics(售后表)" style="swimlane;fontStyle=0;childLayout=stackLayout;horizontal=1;startSize=26;fillColor=none;horizontalStack=0;resizeParent=1;resizeParentMax=0;resizeLast=0;collapsible=1;marginBottom=0;fontSize=18;align=left;" parent="1" vertex="1">
          <mxGeometry x="1630" y="388" width="340" height="78" as="geometry" />
        </mxCell>
        <mxCell id="ihgOOm5gKKsvJmpZFbWJ-86" value="+ purchase_order_refund_id" style="text;strokeColor=none;fillColor=none;align=left;verticalAlign=top;spacingLeft=4;spacingRight=4;overflow=hidden;rotatable=0;points=[[0,0.5],[1,0.5]];portConstraint=eastwest;" parent="ihgOOm5gKKsvJmpZFbWJ-83" vertex="1">
          <mxGeometry y="26" width="340" height="26" as="geometry" />
        </mxCell>
        <mxCell id="ihgOOm5gKKsvJmpZFbWJ-87" value="……" style="text;strokeColor=none;fillColor=none;align=left;verticalAlign=top;spacingLeft=4;spacingRight=4;overflow=hidden;rotatable=0;points=[[0,0.5],[1,0.5]];portConstraint=eastwest;" parent="ihgOOm5gKKsvJmpZFbWJ-83" vertex="1">
          <mxGeometry y="52" width="340" height="26" as="geometry" />
        </mxCell>
        <mxCell id="ihgOOm5gKKsvJmpZFbWJ-88" value="purchase_order_refund_open(售后开放平台对接映射表)" style="swimlane;fontStyle=0;childLayout=stackLayout;horizontal=1;startSize=26;fillColor=none;horizontalStack=0;resizeParent=1;resizeParentMax=0;resizeLast=0;collapsible=1;marginBottom=0;fontSize=18;align=left;" parent="1" vertex="1">
          <mxGeometry x="1630" y="516" width="460" height="104" as="geometry" />
        </mxCell>
        <mxCell id="ihgOOm5gKKsvJmpZFbWJ-91" value="+ purchase_order_refund_id" style="text;strokeColor=none;fillColor=none;align=left;verticalAlign=top;spacingLeft=4;spacingRight=4;overflow=hidden;rotatable=0;points=[[0,0.5],[1,0.5]];portConstraint=eastwest;" parent="ihgOOm5gKKsvJmpZFbWJ-88" vertex="1">
          <mxGeometry y="26" width="460" height="26" as="geometry" />
        </mxCell>
        <mxCell id="ihgOOm5gKKsvJmpZFbWJ-93" value="+ out_refund_id" style="text;strokeColor=none;fillColor=none;align=left;verticalAlign=top;spacingLeft=4;spacingRight=4;overflow=hidden;rotatable=0;points=[[0,0.5],[1,0.5]];portConstraint=eastwest;" parent="ihgOOm5gKKsvJmpZFbWJ-88" vertex="1">
          <mxGeometry y="52" width="460" height="26" as="geometry" />
        </mxCell>
        <mxCell id="ihgOOm5gKKsvJmpZFbWJ-92" value="……" style="text;strokeColor=none;fillColor=none;align=left;verticalAlign=top;spacingLeft=4;spacingRight=4;overflow=hidden;rotatable=0;points=[[0,0.5],[1,0.5]];portConstraint=eastwest;" parent="ihgOOm5gKKsvJmpZFbWJ-88" vertex="1">
          <mxGeometry y="78" width="460" height="26" as="geometry" />
        </mxCell>
        <mxCell id="ihgOOm5gKKsvJmpZFbWJ-94" value="purchase_order_refund_track(售后处理明细)" style="swimlane;fontStyle=0;childLayout=stackLayout;horizontal=1;startSize=26;fillColor=none;horizontalStack=0;resizeParent=1;resizeParentMax=0;resizeLast=0;collapsible=1;marginBottom=0;fontSize=18;align=left;" parent="1" vertex="1">
          <mxGeometry x="1630" y="666" width="460" height="78" as="geometry" />
        </mxCell>
        <mxCell id="ihgOOm5gKKsvJmpZFbWJ-95" value="+ purchase_order_refund_id" style="text;strokeColor=none;fillColor=none;align=left;verticalAlign=top;spacingLeft=4;spacingRight=4;overflow=hidden;rotatable=0;points=[[0,0.5],[1,0.5]];portConstraint=eastwest;" parent="ihgOOm5gKKsvJmpZFbWJ-94" vertex="1">
          <mxGeometry y="26" width="460" height="26" as="geometry" />
        </mxCell>
        <mxCell id="ihgOOm5gKKsvJmpZFbWJ-97" value="……" style="text;strokeColor=none;fillColor=none;align=left;verticalAlign=top;spacingLeft=4;spacingRight=4;overflow=hidden;rotatable=0;points=[[0,0.5],[1,0.5]];portConstraint=eastwest;" parent="ihgOOm5gKKsvJmpZFbWJ-94" vertex="1">
          <mxGeometry y="52" width="460" height="26" as="geometry" />
        </mxCell>
        <mxCell id="ihgOOm5gKKsvJmpZFbWJ-150" style="edgeStyle=orthogonalEdgeStyle;rounded=0;orthogonalLoop=1;jettySize=auto;html=1;entryX=0;entryY=0.547;entryDx=0;entryDy=0;entryPerimeter=0;fontSize=18;fontColor=#FF0000;strokeColor=#FF0000;" parent="1" source="ihgOOm5gKKsvJmpZFbWJ-120" target="ihgOOm5gKKsvJmpZFbWJ-121" edge="1">
          <mxGeometry relative="1" as="geometry" />
        </mxCell>
        <mxCell id="ihgOOm5gKKsvJmpZFbWJ-151" value="1.3.&amp;nbsp;调用PurchaseAPI::devlier或者PurchaseAPI::batchDeliver发货，产生发货数据" style="edgeLabel;html=1;align=center;verticalAlign=middle;resizable=0;points=[];fontSize=18;fontColor=#FF0000;labelBackgroundColor=none;" parent="ihgOOm5gKKsvJmpZFbWJ-150" vertex="1" connectable="0">
          <mxGeometry x="0.0702" y="2" relative="1" as="geometry">
            <mxPoint y="-12" as="offset" />
          </mxGeometry>
        </mxCell>
        <mxCell id="ihgOOm5gKKsvJmpZFbWJ-128" value="" style="ellipse;html=1;shape=startState;fillColor=#000000;strokeColor=#ff0000;fontSize=18;align=left;" parent="1" vertex="1">
          <mxGeometry x="350" y="-950" width="30" height="30" as="geometry" />
        </mxCell>
        <mxCell id="ihgOOm5gKKsvJmpZFbWJ-129" value="" style="edgeStyle=orthogonalEdgeStyle;html=1;verticalAlign=bottom;endArrow=open;endSize=8;strokeColor=#ff0000;fontSize=18;" parent="1" source="ihgOOm5gKKsvJmpZFbWJ-128" target="ihgOOm5gKKsvJmpZFbWJ-119" edge="1">
          <mxGeometry relative="1" as="geometry">
            <mxPoint x="535" y="-770" as="targetPoint" />
          </mxGeometry>
        </mxCell>
        <mxCell id="ihgOOm5gKKsvJmpZFbWJ-130" value="1.1. 调用PurchaseAPI.lock方法产生锁定单并锁定库存" style="edgeLabel;html=1;align=center;verticalAlign=middle;resizable=0;points=[];fontSize=18;fontColor=#f00;labelBackgroundColor=none;" parent="ihgOOm5gKKsvJmpZFbWJ-129" vertex="1" connectable="0">
          <mxGeometry x="-0.1467" y="3" relative="1" as="geometry">
            <mxPoint as="offset" />
          </mxGeometry>
        </mxCell>
        <mxCell id="ihgOOm5gKKsvJmpZFbWJ-133" value="" style="ellipse;html=1;shape=startState;fillColor=#000000;strokeColor=#ff0000;labelBackgroundColor=none;fontSize=18;fontColor=#FF0000;align=left;" parent="1" vertex="1">
          <mxGeometry x="1260" y="345" width="30" height="30" as="geometry" />
        </mxCell>
        <mxCell id="ihgOOm5gKKsvJmpZFbWJ-134" value="" style="edgeStyle=orthogonalEdgeStyle;html=1;verticalAlign=bottom;endArrow=open;endSize=8;strokeColor=#ff0000;fontSize=18;fontColor=#FF0000;" parent="1" source="ihgOOm5gKKsvJmpZFbWJ-133" target="ihgOOm5gKKsvJmpZFbWJ-123" edge="1">
          <mxGeometry relative="1" as="geometry">
            <mxPoint x="1281" y="140" as="targetPoint" />
          </mxGeometry>
        </mxCell>
        <mxCell id="ihgOOm5gKKsvJmpZFbWJ-152" value="2.1 调用RefundAPI::apply产生售后数据" style="edgeLabel;html=1;align=center;verticalAlign=middle;resizable=0;points=[];fontSize=18;fontColor=#FF0000;labelBackgroundColor=none;" parent="ihgOOm5gKKsvJmpZFbWJ-134" vertex="1" connectable="0">
          <mxGeometry x="0.153" y="2" relative="1" as="geometry">
            <mxPoint as="offset" />
          </mxGeometry>
        </mxCell>
        <mxCell id="ihgOOm5gKKsvJmpZFbWJ-135" value="" style="ellipse;html=1;shape=endState;fillColor=#000000;strokeColor=#ff0000;labelBackgroundColor=none;fontSize=18;fontColor=#FF0000;align=left;" parent="1" vertex="1">
          <mxGeometry x="350" y="10" width="30" height="30" as="geometry" />
        </mxCell>
        <mxCell id="VemQdVgCqKe6KZT4vhwg-1" style="edgeStyle=orthogonalEdgeStyle;rounded=0;orthogonalLoop=1;jettySize=auto;html=1;exitX=0;exitY=0.5;exitDx=0;exitDy=0;entryX=1;entryY=0.5;entryDx=0;entryDy=0;" edge="1" parent="1" source="86TAuo0AVCAtvqethzrD-16" target="86TAuo0AVCAtvqethzrD-40">
          <mxGeometry relative="1" as="geometry">
            <Array as="points">
              <mxPoint x="710" y="-574" />
              <mxPoint x="710" y="-694" />
            </Array>
          </mxGeometry>
        </mxCell>
        <mxCell id="VemQdVgCqKe6KZT4vhwg-2" style="edgeStyle=orthogonalEdgeStyle;rounded=0;orthogonalLoop=1;jettySize=auto;html=1;exitX=1;exitY=0.5;exitDx=0;exitDy=0;entryX=1;entryY=0.5;entryDx=0;entryDy=0;" edge="1" parent="1" source="86TAuo0AVCAtvqethzrD-24" target="86TAuo0AVCAtvqethzrD-40">
          <mxGeometry relative="1" as="geometry">
            <Array as="points">
              <mxPoint x="630" y="-274" />
              <mxPoint x="630" y="-694" />
            </Array>
          </mxGeometry>
        </mxCell>
        <mxCell id="VemQdVgCqKe6KZT4vhwg-3" style="edgeStyle=orthogonalEdgeStyle;rounded=0;orthogonalLoop=1;jettySize=auto;html=1;exitX=1;exitY=0.5;exitDx=0;exitDy=0;entryX=1;entryY=0.5;entryDx=0;entryDy=0;" edge="1" parent="1" source="86TAuo0AVCAtvqethzrD-44" target="86TAuo0AVCAtvqethzrD-40">
          <mxGeometry relative="1" as="geometry">
            <Array as="points">
              <mxPoint x="580" y="-404" />
              <mxPoint x="580" y="-694" />
            </Array>
          </mxGeometry>
        </mxCell>
        <mxCell id="VemQdVgCqKe6KZT4vhwg-4" style="edgeStyle=orthogonalEdgeStyle;rounded=0;orthogonalLoop=1;jettySize=auto;html=1;exitX=1;exitY=0.5;exitDx=0;exitDy=0;entryX=1;entryY=0.5;entryDx=0;entryDy=0;" edge="1" parent="1" source="86TAuo0AVCAtvqethzrD-20" target="86TAuo0AVCAtvqethzrD-40">
          <mxGeometry relative="1" as="geometry" />
        </mxCell>
        <mxCell id="VemQdVgCqKe6KZT4vhwg-5" style="edgeStyle=orthogonalEdgeStyle;rounded=0;orthogonalLoop=1;jettySize=auto;html=1;exitX=1;exitY=0.5;exitDx=0;exitDy=0;entryX=1;entryY=0.5;entryDx=0;entryDy=0;" edge="1" parent="1" source="86TAuo0AVCAtvqethzrD-36" target="86TAuo0AVCAtvqethzrD-17">
          <mxGeometry relative="1" as="geometry">
            <Array as="points">
              <mxPoint x="1370" y="-297" />
              <mxPoint x="1370" y="-549" />
            </Array>
          </mxGeometry>
        </mxCell>
        <mxCell id="VemQdVgCqKe6KZT4vhwg-6" style="edgeStyle=orthogonalEdgeStyle;rounded=0;orthogonalLoop=1;jettySize=auto;html=1;exitX=1;exitY=0.5;exitDx=0;exitDy=0;entryX=1;entryY=0.5;entryDx=0;entryDy=0;" edge="1" parent="1" source="86TAuo0AVCAtvqethzrD-28" target="86TAuo0AVCAtvqethzrD-17">
          <mxGeometry relative="1" as="geometry" />
        </mxCell>
        <mxCell id="VemQdVgCqKe6KZT4vhwg-7" style="edgeStyle=orthogonalEdgeStyle;rounded=0;orthogonalLoop=1;jettySize=auto;html=1;exitX=0;exitY=0.5;exitDx=0;exitDy=0;entryX=1;entryY=0.5;entryDx=0;entryDy=0;" edge="1" parent="1" source="ihgOOm5gKKsvJmpZFbWJ-12" target="86TAuo0AVCAtvqethzrD-17">
          <mxGeometry relative="1" as="geometry">
            <Array as="points">
              <mxPoint x="1460" y="19" />
              <mxPoint x="1460" y="-549" />
            </Array>
          </mxGeometry>
        </mxCell>
        <mxCell id="VemQdVgCqKe6KZT4vhwg-8" style="edgeStyle=orthogonalEdgeStyle;rounded=0;orthogonalLoop=1;jettySize=auto;html=1;exitX=0;exitY=0.5;exitDx=0;exitDy=0;entryX=1;entryY=0.5;entryDx=0;entryDy=0;" edge="1" parent="1" source="ihgOOm5gKKsvJmpZFbWJ-13" target="ihgOOm5gKKsvJmpZFbWJ-5">
          <mxGeometry relative="1" as="geometry">
            <Array as="points">
              <mxPoint x="1430" y="45" />
              <mxPoint x="1430" y="-271" />
            </Array>
          </mxGeometry>
        </mxCell>
        <mxCell id="VemQdVgCqKe6KZT4vhwg-9" style="edgeStyle=orthogonalEdgeStyle;rounded=0;orthogonalLoop=1;jettySize=auto;html=1;exitX=0;exitY=0.5;exitDx=0;exitDy=0;entryX=1;entryY=0.5;entryDx=0;entryDy=0;" edge="1" parent="1" source="86TAuo0AVCAtvqethzrD-52" target="86TAuo0AVCAtvqethzrD-17">
          <mxGeometry relative="1" as="geometry">
            <Array as="points">
              <mxPoint x="1550" y="-421" />
              <mxPoint x="1550" y="-549" />
            </Array>
          </mxGeometry>
        </mxCell>
        <mxCell id="VemQdVgCqKe6KZT4vhwg-10" style="edgeStyle=orthogonalEdgeStyle;rounded=0;orthogonalLoop=1;jettySize=auto;html=1;exitX=0;exitY=0.5;exitDx=0;exitDy=0;entryX=1;entryY=0.5;entryDx=0;entryDy=0;" edge="1" parent="1" source="86TAuo0AVCAtvqethzrD-48" target="86TAuo0AVCAtvqethzrD-17">
          <mxGeometry relative="1" as="geometry">
            <Array as="points">
              <mxPoint x="1500" y="-309" />
              <mxPoint x="1500" y="-549" />
            </Array>
          </mxGeometry>
        </mxCell>
        <mxCell id="VemQdVgCqKe6KZT4vhwg-11" style="edgeStyle=orthogonalEdgeStyle;rounded=0;orthogonalLoop=1;jettySize=auto;html=1;exitX=1;exitY=0.5;exitDx=0;exitDy=0;entryX=1;entryY=0.5;entryDx=0;entryDy=0;" edge="1" parent="1" source="ihgOOm5gKKsvJmpZFbWJ-76" target="ihgOOm5gKKsvJmpZFbWJ-71">
          <mxGeometry relative="1" as="geometry" />
        </mxCell>
        <mxCell id="VemQdVgCqKe6KZT4vhwg-12" style="edgeStyle=orthogonalEdgeStyle;rounded=0;orthogonalLoop=1;jettySize=auto;html=1;exitX=1;exitY=0.5;exitDx=0;exitDy=0;entryX=1;entryY=0.5;entryDx=0;entryDy=0;" edge="1" parent="1" source="ihgOOm5gKKsvJmpZFbWJ-79" target="ihgOOm5gKKsvJmpZFbWJ-71">
          <mxGeometry relative="1" as="geometry">
            <Array as="points">
              <mxPoint x="2070" y="309" />
              <mxPoint x="2070" y="71" />
            </Array>
          </mxGeometry>
        </mxCell>
        <mxCell id="VemQdVgCqKe6KZT4vhwg-13" style="edgeStyle=orthogonalEdgeStyle;rounded=0;orthogonalLoop=1;jettySize=auto;html=1;exitX=1;exitY=0.5;exitDx=0;exitDy=0;entryX=1;entryY=0.5;entryDx=0;entryDy=0;" edge="1" parent="1" source="ihgOOm5gKKsvJmpZFbWJ-86" target="ihgOOm5gKKsvJmpZFbWJ-71">
          <mxGeometry relative="1" as="geometry">
            <Array as="points">
              <mxPoint x="2110" y="427" />
              <mxPoint x="2110" y="71" />
            </Array>
          </mxGeometry>
        </mxCell>
        <mxCell id="VemQdVgCqKe6KZT4vhwg-14" style="edgeStyle=orthogonalEdgeStyle;rounded=0;orthogonalLoop=1;jettySize=auto;html=1;exitX=1;exitY=0.5;exitDx=0;exitDy=0;entryX=1;entryY=0.5;entryDx=0;entryDy=0;" edge="1" parent="1" source="ihgOOm5gKKsvJmpZFbWJ-91" target="ihgOOm5gKKsvJmpZFbWJ-71">
          <mxGeometry relative="1" as="geometry">
            <Array as="points">
              <mxPoint x="2150" y="555" />
              <mxPoint x="2150" y="71" />
            </Array>
          </mxGeometry>
        </mxCell>
        <mxCell id="VemQdVgCqKe6KZT4vhwg-15" style="edgeStyle=orthogonalEdgeStyle;rounded=0;orthogonalLoop=1;jettySize=auto;html=1;exitX=1;exitY=0.5;exitDx=0;exitDy=0;entryX=1;entryY=0.5;entryDx=0;entryDy=0;" edge="1" parent="1" source="ihgOOm5gKKsvJmpZFbWJ-95" target="ihgOOm5gKKsvJmpZFbWJ-71">
          <mxGeometry relative="1" as="geometry">
            <Array as="points">
              <mxPoint x="2190" y="705" />
              <mxPoint x="2190" y="71" />
            </Array>
          </mxGeometry>
        </mxCell>
        <mxCell id="VemQdVgCqKe6KZT4vhwg-16" value="logistics_company" style="swimlane;fontStyle=0;childLayout=stackLayout;horizontal=1;startSize=26;fillColor=none;horizontalStack=0;resizeParent=1;resizeParentMax=0;resizeLast=0;collapsible=1;marginBottom=0;" vertex="1" parent="1">
          <mxGeometry x="160" y="228" width="140" height="78" as="geometry" />
        </mxCell>
        <mxCell id="VemQdVgCqKe6KZT4vhwg-17" value="+ logistics_channel" style="text;strokeColor=none;fillColor=none;align=left;verticalAlign=top;spacingLeft=4;spacingRight=4;overflow=hidden;rotatable=0;points=[[0,0.5],[1,0.5]];portConstraint=eastwest;" vertex="1" parent="VemQdVgCqKe6KZT4vhwg-16">
          <mxGeometry y="26" width="140" height="26" as="geometry" />
        </mxCell>
        <mxCell id="VemQdVgCqKe6KZT4vhwg-19" value="……" style="text;strokeColor=none;fillColor=none;align=left;verticalAlign=top;spacingLeft=4;spacingRight=4;overflow=hidden;rotatable=0;points=[[0,0.5],[1,0.5]];portConstraint=eastwest;" vertex="1" parent="VemQdVgCqKe6KZT4vhwg-16">
          <mxGeometry y="52" width="140" height="26" as="geometry" />
        </mxCell>
        <mxCell id="VemQdVgCqKe6KZT4vhwg-20" value="物流轨迹" style="swimlane;fontStyle=0;childLayout=stackLayout;horizontal=1;startSize=26;fillColor=none;horizontalStack=0;resizeParent=1;resizeParentMax=0;resizeLast=0;collapsible=1;marginBottom=0;" vertex="1" parent="1">
          <mxGeometry x="160" y="516" width="140" height="104" as="geometry" />
        </mxCell>
        <mxCell id="VemQdVgCqKe6KZT4vhwg-21" value="+ logistics_channel" style="text;strokeColor=none;fillColor=none;align=left;verticalAlign=top;spacingLeft=4;spacingRight=4;overflow=hidden;rotatable=0;points=[[0,0.5],[1,0.5]];portConstraint=eastwest;" vertex="1" parent="VemQdVgCqKe6KZT4vhwg-20">
          <mxGeometry y="26" width="140" height="26" as="geometry" />
        </mxCell>
        <mxCell id="VemQdVgCqKe6KZT4vhwg-22" value="+ logistics_number" style="text;strokeColor=none;fillColor=none;align=left;verticalAlign=top;spacingLeft=4;spacingRight=4;overflow=hidden;rotatable=0;points=[[0,0.5],[1,0.5]];portConstraint=eastwest;" vertex="1" parent="VemQdVgCqKe6KZT4vhwg-20">
          <mxGeometry y="52" width="140" height="26" as="geometry" />
        </mxCell>
        <mxCell id="VemQdVgCqKe6KZT4vhwg-29" value="……" style="text;strokeColor=none;fillColor=none;align=left;verticalAlign=top;spacingLeft=4;spacingRight=4;overflow=hidden;rotatable=0;points=[[0,0.5],[1,0.5]];portConstraint=eastwest;" vertex="1" parent="VemQdVgCqKe6KZT4vhwg-20">
          <mxGeometry y="78" width="140" height="26" as="geometry" />
        </mxCell>
        <mxCell id="VemQdVgCqKe6KZT4vhwg-24" value="logistics（物流公司）" style="swimlane;fontStyle=0;childLayout=stackLayout;horizontal=1;startSize=26;fillColor=none;horizontalStack=0;resizeParent=1;resizeParentMax=0;resizeLast=0;collapsible=1;marginBottom=0;" vertex="1" parent="1">
          <mxGeometry x="160" y="348" width="140" height="104" as="geometry" />
        </mxCell>
        <mxCell id="VemQdVgCqKe6KZT4vhwg-25" value="+ logistics_channel" style="text;strokeColor=none;fillColor=none;align=left;verticalAlign=top;spacingLeft=4;spacingRight=4;overflow=hidden;rotatable=0;points=[[0,0.5],[1,0.5]];portConstraint=eastwest;" vertex="1" parent="VemQdVgCqKe6KZT4vhwg-24">
          <mxGeometry y="26" width="140" height="26" as="geometry" />
        </mxCell>
        <mxCell id="VemQdVgCqKe6KZT4vhwg-28" value="+ logistics_number" style="text;strokeColor=none;fillColor=none;align=left;verticalAlign=top;spacingLeft=4;spacingRight=4;overflow=hidden;rotatable=0;points=[[0,0.5],[1,0.5]];portConstraint=eastwest;" vertex="1" parent="VemQdVgCqKe6KZT4vhwg-24">
          <mxGeometry y="52" width="140" height="26" as="geometry" />
        </mxCell>
        <mxCell id="VemQdVgCqKe6KZT4vhwg-26" value="……" style="text;strokeColor=none;fillColor=none;align=left;verticalAlign=top;spacingLeft=4;spacingRight=4;overflow=hidden;rotatable=0;points=[[0,0.5],[1,0.5]];portConstraint=eastwest;" vertex="1" parent="VemQdVgCqKe6KZT4vhwg-24">
          <mxGeometry y="78" width="140" height="26" as="geometry" />
        </mxCell>
        <mxCell id="VemQdVgCqKe6KZT4vhwg-31" style="edgeStyle=orthogonalEdgeStyle;rounded=0;orthogonalLoop=1;jettySize=auto;html=1;exitX=1;exitY=0.5;exitDx=0;exitDy=0;entryX=1;entryY=0.5;entryDx=0;entryDy=0;" edge="1" parent="1" source="VemQdVgCqKe6KZT4vhwg-21" target="VemQdVgCqKe6KZT4vhwg-25">
          <mxGeometry relative="1" as="geometry">
            <Array as="points">
              <mxPoint x="340" y="555" />
              <mxPoint x="340" y="387" />
            </Array>
          </mxGeometry>
        </mxCell>
        <mxCell id="VemQdVgCqKe6KZT4vhwg-32" style="edgeStyle=orthogonalEdgeStyle;rounded=0;orthogonalLoop=1;jettySize=auto;html=1;exitX=1;exitY=0.5;exitDx=0;exitDy=0;entryX=1;entryY=0.5;entryDx=0;entryDy=0;" edge="1" parent="1" source="VemQdVgCqKe6KZT4vhwg-22" target="VemQdVgCqKe6KZT4vhwg-28">
          <mxGeometry relative="1" as="geometry">
            <Array as="points">
              <mxPoint x="370" y="581" />
              <mxPoint x="370" y="413" />
            </Array>
          </mxGeometry>
        </mxCell>
      </root>
    </mxGraphModel>
  </diagram>
</mxfile>
